<?xml version="1.0" standalone="no"?>
<!DOCTYPE svg PUBLIC "-//W3C//DTD SVG 20010904//EN"
 "http://www.w3.org/TR/2001/REC-SVG-20010904/DTD/svg10.dtd">
<svg version="1.0" xmlns="http://www.w3.org/2000/svg"
 width="700.000000pt" height="700.000000pt" viewBox="0 0 700.000000 700.000000"
 preserveAspectRatio="xMidYMid meet">
<metadata>
Created by potrace 1.11, written by Peter Selinger 2001-2013
</metadata>
<g transform="translate(0.000000,700.000000) scale(0.100000,-0.100000)"
fill="#000000" stroke="none">
<path d="M3275 6864 c-997 -80 -1866 -549 -2460 -1329 -357 -468 -581 -1021
-662 -1630 -24 -182 -24 -628 0 -810 81 -609 305 -1162 662 -1630 556 -730
1354 -1189 2280 -1312 182 -24 628 -24 810 0 528 70 1001 243 1430 522 757
493 1285 1266 1465 2145 52 258 64 378 64 680 0 203 -5 309 -17 405 -58 436
-191 849 -388 1207 -528 959 -1463 1595 -2549 1733 -119 16 -527 27 -635 19z
m1549 -1282 c179 -145 326 -266 326 -268 0 -3 -286 -335 -635 -739 l-635 -734
845 -1231 c465 -677 845 -1233 845 -1235 0 -3 -242 -5 -538 -5 l-538 0 -214
313 c-118 171 -387 566 -598 877 -211 311 -389 571 -394 578 -8 10 -27 -5 -82
-65 -39 -43 -122 -132 -183 -198 l-113 -120 0 -687 0 -688 -435 0 -435 0 0
2185 0 2185 430 0 430 0 0 -862 1 -863 55 60 c89 96 542 618 1054 1213 261
303 478 551 482 549 3 -1 153 -120 332 -265z"/>
</g>
</svg>
